<?xml version="1.0" encoding="UTF-8" standalone="no"?>
<!-- Created with Inkscape (http://www.inkscape.org/) -->

<svg
   xmlns:dc="http://purl.org/dc/elements/1.1/"
   xmlns:cc="http://creativecommons.org/ns#"
   xmlns:rdf="http://www.w3.org/1999/02/22-rdf-syntax-ns#"
   xmlns:svg="http://www.w3.org/2000/svg"
   xmlns="http://www.w3.org/2000/svg"
   xmlns:sodipodi="http://sodipodi.sourceforge.net/DTD/sodipodi-0.dtd"
   xmlns:inkscape="http://www.inkscape.org/namespaces/inkscape"
   width="512"
   height="256"
   id="svg2"
   version="1.1"
   inkscape:version="0.48.5 r10040"
   sodipodi:docname="Sign_Assembly_Area_Large.svg"
   inkscape:export-filename="C:\Users\Anton\Dropbox\Assembly_Area_C.png"
   inkscape:export-xdpi="90"
   inkscape:export-ydpi="90">
  <defs
     id="defs4" />
  <sodipodi:namedview
     id="base"
     pagecolor="#ffffff"
     bordercolor="#666666"
     borderopacity="1.0"
     inkscape:pageopacity="0.0"
     inkscape:pageshadow="2"
     inkscape:zoom="1.6350872"
     inkscape:cx="237.99835"
     inkscape:cy="94.299824"
     inkscape:document-units="px"
     inkscape:current-layer="layer1"
     showgrid="false"
     inkscape:window-width="1680"
     inkscape:window-height="988"
     inkscape:window-x="-8"
     inkscape:window-y="-8"
     inkscape:window-maximized="1"
     showguides="true"
     inkscape:guide-bbox="true">
    <sodipodi:guide
       orientation="1,0"
       position="256.00171,269.7728"
       id="guide3871" />
  </sodipodi:namedview>
  <metadata
     id="metadata7">
    <rdf:RDF>
      <cc:Work
         rdf:about="">
        <dc:format>image/svg+xml</dc:format>
        <dc:type
           rdf:resource="http://purl.org/dc/dcmitype/StillImage" />
        <dc:title></dc:title>
      </cc:Work>
    </rdf:RDF>
  </metadata>
  <g
     inkscape:label="Layer 1"
     inkscape:groupmode="layer"
     id="layer1"
     transform="translate(0,-796.36218)"
     style="display:inline">
    <rect
       style="fill:#dfeeb1;fill-opacity:1;stroke:#126449;stroke-width:16.18496323000000100;stroke-miterlimit:4;stroke-opacity:1;stroke-dasharray:none;display:inline"
       id="rect3765-1"
       width="495.81503"
       height="239.81503"
       x="8.0924816"
       y="8.0924854"
       ry="15.102848"
       transform="translate(0,796.36218)" />
    <rect
       style="fill:#126449;fill-opacity:1;stroke:none"
       id="rect3867"
       width="244.38153"
       height="233.01509"
       x="11.620177"
       y="810.17328"
       ry="0" />
    <text
       xml:space="preserve"
       style="font-size:237.14860535px;font-style:normal;font-weight:bold;line-height:125%;letter-spacing:0px;word-spacing:0px;fill:#126449;fill-opacity:1;stroke:none;font-family:Sans;-inkscape-font-specification:Sans Bold"
       x="292.7088"
       y="1009.2401"
       id="text3873"
       sodipodi:linespacing="125%"><tspan
         sodipodi:role="line"
         id="tspan3875"
         x="292.7088"
         y="1009.2401">C</tspan></text>
  </g>
  <g
     inkscape:groupmode="layer"
     id="layer2"
     inkscape:label="WOrking">
    <g
       id="g3856"
       transform="translate(-242.17918,0)">
      <path
         transform="matrix(0.82978724,0,0,0.82978724,290.37712,-0.9226811)"
         sodipodi:open="true"
         sodipodi:end="10.995574"
         sodipodi:start="4.712389"
         d="m 84.464287,91.714282 c 4.635247,0 8.392857,3.757611 8.392857,8.392858 0,4.63525 -3.75761,8.39286 -8.392857,8.39286 -4.635248,0 -8.392858,-3.75761 -8.392858,-8.39286 0,-4.635247 3.757609,-8.392857 8.392855,-8.392858"
         sodipodi:ry="8.3928576"
         sodipodi:rx="8.3928576"
         sodipodi:cy="100.10714"
         sodipodi:cx="84.464287"
         id="path3769"
         style="fill:#dfefb0;fill-opacity:1;stroke:none"
         sodipodi:type="arc" />
      <path
         transform="matrix(0.82978724,0,0,0.82978724,307.09434,-12.048541)"
         sodipodi:open="true"
         sodipodi:end="10.995574"
         sodipodi:start="4.712389"
         d="m 84.464287,91.714282 c 4.635247,0 8.392857,3.757611 8.392857,8.392858 0,4.63525 -3.75761,8.39286 -8.392857,8.39286 -4.635248,0 -8.392858,-3.75761 -8.392858,-8.39286 0,-4.635247 3.757609,-8.392857 8.392855,-8.392858"
         sodipodi:ry="8.3928576"
         sodipodi:rx="8.3928576"
         sodipodi:cy="100.10714"
         sodipodi:cx="84.464287"
         id="path3769-1"
         style="fill:#dfefb0;fill-opacity:1;stroke:none"
         sodipodi:type="arc" />
      <path
         transform="matrix(0.82978724,0,0,0.82978724,324.21904,-1.3537876)"
         sodipodi:open="true"
         sodipodi:end="10.995574"
         sodipodi:start="4.712389"
         d="m 84.464287,91.714282 c 4.635247,0 8.392857,3.757611 8.392857,8.392858 0,4.63525 -3.75761,8.39286 -8.392857,8.39286 -4.635248,0 -8.392858,-3.75761 -8.392858,-8.39286 0,-4.635247 3.757609,-8.392857 8.392855,-8.392858"
         sodipodi:ry="8.3928576"
         sodipodi:rx="8.3928576"
         sodipodi:cy="100.10714"
         sodipodi:cx="84.464287"
         id="path3769-7"
         style="fill:#dfefb0;fill-opacity:1;stroke:none"
         sodipodi:type="arc" />
      <path
         sodipodi:nodetypes="cccccccccccccccccccc"
         inkscape:connector-curvature="0"
         id="path3771"
         d="m 352.54303,90.731697 c -4.83059,0.29527 -7.3187,2.73554 -8.28125,6.5625 l -0.125,22.406253 c 1.95717,2.26957 3.91783,2.44315 5.875,0 l 0.0625,-19.875003 1.375,0 -0.5,53.843753 c 2.26746,1.67937 4.74514,2.73047 8.34375,0.25 l 0,-32.1875 c 0.55207,0 1.10413,0 1.6562,0 l 0,32.1875 c 3.59861,2.48047 6.07629,1.42937 8.34375,-0.25 l -0.5,-53.843753 1.375,0 0.0625,19.875003 c 1.95717,2.44315 3.91783,2.26957 5.875,0 l -0.125,-22.406253 c -0.96255,-3.82696 -3.41941,-6.26723 -8.25,-6.5625 -5.0625,0 -10.125,0 -15.1875,0 z"
         style="fill:#dfeeb1;fill-opacity:1;stroke:none" />
      <path
         sodipodi:nodetypes="ccccccccccccccccccc"
         inkscape:connector-curvature="0"
         id="path3843"
         d="m 386.82428,90.731697 c -4.83059,0.29527 -7.3187,2.73554 -8.28125,6.5625 l -0.125,22.406253 c 1.95717,2.26957 3.91783,2.44315 5.875,0 l 0.0625,-19.875003 1.375,0 -0.5,53.843753 c 2.26746,1.67937 4.74514,2.73047 8.34375,0.25 l 0,-32.1875 c 0.5625,0 1.125,0 1.6875,0 l 0,32.1875 c 3.59861,2.48047 6.04504,1.42937 8.3125,-0.25 l -0.5,-53.843753 1.40625,0 0.0625,19.875003 c 1.95717,2.44315 3.88658,2.26957 5.84375,0 l -0.125,-22.406253 c -0.96255,-3.82696 -3.41941,-6.26723 -8.25,-6.5625 -5.0625,0 -10.125,0 -15.1875,0 z"
         style="fill:#dfeeb1;fill-opacity:1;stroke:none" />
      <path
         sodipodi:nodetypes="cccccccccc"
         inkscape:connector-curvature="0"
         id="path3855"
         d="m 328.23053,26.981697 0,22.53125 -19.5625,-19.59375 -9.34375,9.34375 19.5625,19.5625 -22.5,0 12.15625,12.15625 31.79688,-0.04687 0.0469,-31.796875 z"
         style="fill:#dfeeb1;fill-opacity:1;stroke:none" />
      <path
         sodipodi:nodetypes="cccccccccc"
         inkscape:connector-curvature="0"
         id="path3884"
         d="m 426.54303,26.731697 -12.125,12.15625 0.0469,31.796875 31.79688,0.04687 12.15625,-12.15625 -22.53125,0 19.59375,-19.5625 -9.34375,-9.34375 -19.59375,19.59375 z"
         style="fill:#dfeeb1;fill-opacity:1;stroke:none" />
      <path
         sodipodi:nodetypes="cccccccccc"
         inkscape:connector-curvature="0"
         id="path3890"
         d="m 309.29303,147.0442 -12.15625,12.125 22.53125,0 -19.59375,19.59375 9.34375,9.34375 19.59375,-19.59375 0,22.5 12.125,-12.125 -0.0469,-31.79688 z"
         style="fill:#dfeeb1;fill-opacity:1;stroke:none" />
      <path
         sodipodi:nodetypes="cccccccccc"
         inkscape:connector-curvature="0"
         id="path3896"
         d="m 413.91803,179.63795 12.125,12.15625 0,-22.53125 19.59375,19.59375 9.3437,-9.3437 -19.59375,-19.59375 22.53125,0 -12.15625,-12.125 -31.79688,0.0469 z"
         style="fill:#dfeeb1;fill-opacity:1;stroke:none" />
    </g>
    <text
       xml:space="preserve"
       style="font-size:28px;font-style:normal;font-weight:bold;line-height:125%;letter-spacing:-0.02px;word-spacing:0px;fill:#dfeeb1;fill-opacity:1;stroke:none;font-family:Sans;-inkscape-font-specification:Sans Bold"
       x="135.70175"
       y="223.37573"
       id="text3900"
       sodipodi:linespacing="125%"><tspan
         sodipodi:role="line"
         id="tspan3902"
         x="135.15176"
         y="223.37573"
         style="text-align:center;letter-spacing:-1.10000002px;text-anchor:middle;fill:#dfeeb1;fill-opacity:1">Assembly Area</tspan></text>
  </g>
</svg>
